<?xml version="1.0" encoding="UTF-8" ?>
<!DOCTYPE svg PUBLIC "-//W3C//DTD SVG 1.1//EN" "http://www.w3.org/Graphics/SVG/1.1/DTD/svg11.dtd">
<svg width="762pt" height="603pt" viewBox="0 0 762 603" version="1.1" xmlns="http://www.w3.org/2000/svg">
<path fill="#000000" opacity="1.00" d=" M 412.83 45.85 C 426.45 15.57 464.44 1.62 495.15 11.89 C 536.53 29.41 578.00 46.74 619.10 64.89 C 649.80 79.08 663.85 119.19 650.80 149.94 C 644.32 168.18 634.42 185.11 628.77 203.62 C 643.32 209.46 657.63 215.86 671.99 222.16 C 666.20 234.30 662.06 247.18 655.97 259.19 C 653.24 258.17 650.53 257.13 647.81 256.13 C 660.23 288.86 663.62 324.00 662.22 358.78 C 695.04 367.43 727.18 378.59 758.26 392.25 C 715.83 411.97 671.98 428.66 627.68 443.63 C 565.84 512.16 467.03 528.73 379.04 525.99 C 306.97 523.33 229.74 505.51 176.98 453.02 C 151.75 426.35 135.65 390.71 133.93 353.92 C 116.24 368.92 99.43 384.98 81.11 399.24 C 69.33 385.81 57.38 372.52 45.88 358.84 C 66.75 344.27 88.60 331.11 109.14 316.09 C 76.46 320.99 43.99 327.27 11.16 331.13 C 7.83 312.90 8.82 294.29 5.97 276.02 C 38.49 275.81 70.89 278.76 103.31 280.72 C 74.28 265.94 44.45 252.62 14.97 238.69 C 19.96 222.01 27.02 206.04 33.46 189.89 C 72.35 215.18 109.07 244.20 147.71 270.05 C 149.13 264.79 151.16 259.63 151.77 254.20 C 140.88 241.61 131.78 221.54 139.90 205.55 C 149.68 213.96 161.03 221.05 173.65 224.19 C 209.20 174.80 261.93 138.86 319.14 119.13 C 337.82 117.62 337.21 95.65 345.18 82.86 C 359.99 88.83 374.29 96.32 389.59 100.95 C 396.58 82.28 404.85 64.11 412.83 45.85 M 433.41 53.25 L 432.74 53.41 C 429.32 61.62 425.57 69.69 422.38 77.99 C 418.48 87.49 413.81 96.73 410.96 106.62 C 477.48 134.19 543.51 162.96 609.87 190.88 C 613.75 182.01 617.79 173.21 621.16 164.13 C 625.08 156.22 627.80 147.76 632.02 140.00 L 631.77 139.25 C 640.23 117.26 626.87 89.97 604.87 82.14 C 568.48 65.90 531.43 51.19 495.01 35.04 C 473.66 23.43 445.03 31.90 433.41 53.25 M 344.52 133.19 C 286.86 149.09 233.88 182.69 196.14 229.24 C 193.18 231.70 197.91 232.21 199.66 233.22 C 249.40 246.79 302.14 249.53 349.92 270.08 C 374.92 280.59 398.37 300.22 404.07 327.94 C 384.74 300.35 354.92 280.89 321.61 275.34 C 274.24 266.86 225.27 264.74 180.01 246.99 C 190.01 264.30 209.77 272.13 227.12 279.91 C 252.24 288.71 278.00 296.24 304.50 299.48 C 259.74 301.83 211.73 296.30 174.05 269.93 C 181.14 282.19 194.13 289.55 206.58 295.42 C 242.92 310.36 282.61 314.52 321.45 316.96 C 276.48 323.75 227.65 321.82 185.69 302.25 C 195.30 315.63 211.08 322.21 226.35 326.68 C 261.48 335.11 297.84 337.24 333.85 338.04 L 333.82 338.73 C 304.29 343.55 274.10 346.41 244.31 342.60 C 218.30 340.29 188.68 333.98 171.95 312.06 C 166.45 305.90 168.01 296.01 161.99 290.66 C 152.33 320.08 150.95 352.26 160.04 381.99 C 170.30 421.66 201.44 452.39 236.73 471.27 C 292.31 499.71 356.21 507.01 417.85 504.90 C 475.89 501.29 536.33 490.60 584.12 455.08 C 571.81 456.28 559.17 456.81 547.17 453.31 C 530.31 449.68 514.29 438.74 509.23 421.64 C 503.76 392.95 521.09 359.38 550.63 351.62 C 580.11 343.13 611.44 348.15 640.93 354.03 C 636.89 342.99 649.75 314.22 634.07 312.87 C 634.01 321.92 633.98 330.98 633.89 340.04 C 625.83 340.09 617.76 339.76 609.74 339.19 C 610.21 330.57 610.32 321.91 609.70 313.31 C 600.49 312.53 591.24 313.00 582.02 313.03 C 576.67 313.01 571.33 312.99 566.01 312.98 C 565.98 304.99 565.97 297.00 566.00 289.01 C 589.04 288.90 612.07 289.17 635.11 288.88 C 629.14 271.48 629.04 243.91 607.15 238.85 C 538.23 209.04 468.80 180.41 400.05 150.22 L 399.23 150.39 C 391.59 146.76 383.55 144.02 376.10 140.00 L 375.27 140.19 C 371.04 138.21 366.94 135.45 362.20 134.96 C 357.47 130.26 350.28 131.00 344.52 133.19 M 563.13 365.00 C 542.46 367.71 525.72 386.01 524.70 406.76 C 519.77 429.15 547.17 439.35 565.03 439.99 C 610.02 436.97 651.72 417.86 693.50 402.41 C 681.14 403.90 668.59 403.83 656.36 406.34 C 627.22 409.87 593.91 406.11 568.09 422.10 C 565.28 422.19 562.40 422.09 559.65 421.71 C 560.34 408.72 575.90 404.93 586.01 402.03 C 628.01 392.60 671.33 393.61 714.09 391.43 C 665.46 376.00 614.92 357.68 563.13 365.00 Z" />
<path fill="#ed7c31" opacity="1.00" d=" M 433.41 53.25 C 445.03 31.90 473.66 23.43 495.01 35.04 C 531.43 51.19 568.48 65.90 604.87 82.14 C 626.87 89.97 640.23 117.26 631.77 139.25 C 629.48 131.67 625.62 124.71 621.31 118.11 C 625.50 112.75 623.52 105.91 618.20 101.84 C 605.39 91.95 588.23 83.93 571.79 88.99 C 541.92 76.25 512.10 63.39 482.14 50.88 C 466.28 43.94 448.93 47.42 433.41 53.25 Z" />
<path fill="#d6562b" opacity="1.00" d=" M 433.41 53.25 C 448.93 47.42 466.28 43.94 482.14 50.88 C 512.10 63.39 541.92 76.25 571.79 88.99 C 571.03 93.02 569.66 97.65 573.12 100.83 C 585.10 113.70 603.73 121.34 621.31 118.11 C 625.62 124.71 629.48 131.67 631.77 139.25 L 632.02 140.00 C 627.80 147.76 625.08 156.22 621.16 164.13 C 555.30 134.60 487.46 108.86 422.38 77.99 C 425.57 69.69 429.32 61.62 432.74 53.41 L 433.41 53.25 Z" />
<path fill="#b55232" opacity="1.00" d=" M 410.96 106.62 C 413.81 96.73 418.48 87.49 422.38 77.99 C 487.46 108.86 555.30 134.60 621.16 164.13 C 617.79 173.21 613.75 182.01 609.87 190.88 C 543.51 162.96 477.48 134.19 410.96 106.62 Z" />
<path fill="#ffffff" opacity="1.00" d=" M 571.79 88.99 C 588.23 83.93 605.39 91.95 618.20 101.84 C 623.52 105.91 625.50 112.75 621.31 118.11 C 603.73 121.34 585.10 113.70 573.12 100.83 C 569.66 97.65 571.03 93.02 571.79 88.99 Z" />
<path fill="#e5d3bd" opacity="1.00" d=" M 344.52 133.19 C 350.28 131.00 357.47 130.26 362.20 134.96 C 338.88 140.14 315.27 146.06 293.87 156.95 C 320.37 148.46 348.03 145.17 375.27 140.19 L 376.10 140.00 C 383.55 144.02 391.59 146.76 399.23 150.39 C 326.84 159.46 257.13 188.22 199.66 233.22 C 197.91 232.21 193.18 231.70 196.14 229.24 C 233.88 182.69 286.86 149.09 344.52 133.19 Z" />
<path fill="#ffffff" opacity="1.00" d=" M 293.87 156.95 C 315.27 146.06 338.88 140.14 362.20 134.96 C 366.94 135.45 371.04 138.21 375.27 140.19 C 348.03 145.17 320.37 148.46 293.87 156.95 Z" />
<path fill="#c7b29e" opacity="1.00" d=" M 399.23 150.39 L 400.05 150.22 C 468.80 180.41 538.23 209.04 607.15 238.85 C 629.04 243.91 629.14 271.48 635.11 288.88 C 612.07 289.17 589.04 288.90 566.00 289.01 C 565.97 297.00 565.98 304.99 566.01 312.98 C 571.33 312.99 576.67 313.01 582.02 313.03 C 581.99 321.67 582.01 330.31 582.08 338.96 C 591.29 338.98 600.52 338.87 609.74 339.19 C 617.76 339.76 625.83 340.09 633.89 340.04 C 633.98 330.98 634.01 321.92 634.07 312.87 C 649.75 314.22 636.89 342.99 640.93 354.03 C 611.44 348.15 580.11 343.13 550.63 351.62 C 521.09 359.38 503.76 392.95 509.23 421.64 C 514.29 438.74 530.31 449.68 547.17 453.31 C 528.57 465.30 505.76 469.35 484.30 473.47 C 447.58 480.86 421.32 443.96 385.92 442.94 C 371.96 442.21 361.31 453.98 347.54 454.47 C 326.03 455.82 310.72 435.49 289.54 435.37 C 281.81 437.25 274.70 442.86 266.23 440.44 C 255.55 434.56 248.84 423.90 239.57 416.28 C 229.47 408.60 216.56 416.74 205.49 415.82 C 188.32 407.66 173.74 395.00 160.04 381.99 C 150.95 352.26 152.33 320.08 161.99 290.66 C 168.01 296.01 166.45 305.90 171.95 312.06 C 188.68 333.98 218.30 340.29 244.31 342.60 C 274.10 346.41 304.29 343.55 333.82 338.73 L 333.85 338.04 C 297.84 337.24 261.48 335.11 226.35 326.68 C 211.08 322.21 195.30 315.63 185.69 302.25 C 227.65 321.82 276.48 323.75 321.45 316.96 C 282.61 314.52 242.92 310.36 206.58 295.42 C 194.13 289.55 181.14 282.19 174.05 269.93 C 211.73 296.30 259.74 301.83 304.50 299.48 C 278.00 296.24 252.24 288.71 227.12 279.91 C 209.77 272.13 190.01 264.30 180.01 246.99 C 225.27 264.74 274.24 266.86 321.61 275.34 C 354.92 280.89 384.74 300.35 404.07 327.94 C 398.37 300.22 374.92 280.59 349.92 270.08 C 302.14 249.53 249.40 246.79 199.66 233.22 C 257.13 188.22 326.84 159.46 399.23 150.39 M 342.81 172.54 C 335.18 173.92 321.56 178.41 326.24 188.44 C 338.85 196.86 358.50 193.25 368.96 182.82 C 373.48 168.85 350.71 171.53 342.81 172.54 M 292.73 189.47 C 286.16 190.92 277.39 195.23 277.09 202.71 C 285.69 209.00 301.13 202.34 304.99 192.87 C 304.77 187.03 296.35 189.17 292.73 189.47 M 363.92 192.50 C 359.81 193.07 353.30 195.73 356.46 201.17 C 364.59 207.68 378.42 207.81 386.01 200.52 C 387.34 189.42 370.62 192.25 363.92 192.50 M 321.43 199.59 C 314.83 200.70 301.52 204.18 306.13 212.82 C 314.44 216.19 326.85 213.72 332.50 206.25 C 335.43 199.66 325.82 198.58 321.43 199.59 M 455.00 292.01 C 454.98 300.00 454.98 307.99 455.01 316.00 C 456.76 316.00 460.26 316.00 462.01 316.00 C 461.98 324.66 461.98 333.32 462.00 341.99 C 474.00 342.02 486.00 342.02 498.00 341.99 L 498.00 342.99 C 506.00 343.02 513.99 343.01 521.99 342.99 C 521.99 334.00 522.00 325.01 522.01 316.03 C 525.04 316.03 527.91 315.94 530.99 315.97 C 531.01 307.98 531.01 300.00 531.00 292.02 C 505.66 291.98 480.33 291.99 455.00 292.01 Z" />
<path fill="#937963" opacity="1.00" d=" M 342.81 172.54 C 350.71 171.53 373.48 168.85 368.96 182.82 C 358.50 193.25 338.85 196.86 326.24 188.44 C 321.56 178.41 335.18 173.92 342.81 172.54 Z" />
<path fill="#937963" opacity="1.00" d=" M 292.73 189.47 C 296.35 189.17 304.77 187.03 304.99 192.87 C 301.13 202.34 285.69 209.00 277.09 202.71 C 277.39 195.23 286.16 190.92 292.73 189.47 Z" />
<path fill="#937963" opacity="1.00" d=" M 363.92 192.50 C 370.62 192.25 387.34 189.42 386.01 200.52 C 378.42 207.81 364.59 207.68 356.46 201.17 C 353.30 195.73 359.81 193.07 363.92 192.50 Z" />
<path fill="#937963" opacity="1.00" d=" M 321.43 199.59 C 325.82 198.58 335.43 199.66 332.50 206.25 C 326.85 213.72 314.44 216.19 306.13 212.82 C 301.52 204.18 314.83 200.70 321.43 199.59 Z" />
<path fill="#000000" opacity="1.00" d=" M 455.00 292.01 C 480.33 291.99 505.66 291.98 531.00 292.02 C 531.01 300.00 531.01 307.98 530.99 315.97 C 527.91 315.94 525.04 316.03 522.01 316.03 C 522.00 325.01 521.99 334.00 521.99 342.99 C 513.99 343.01 506.00 343.02 498.00 342.99 L 498.00 341.99 C 498.00 333.33 497.99 324.67 497.99 316.02 C 485.99 315.98 474.00 315.99 462.01 316.00 C 460.26 316.00 456.76 316.00 455.01 316.00 C 454.98 307.99 454.98 300.00 455.00 292.01 Z" />
<path fill="#ffffff" opacity="1.00" d=" M 582.02 313.03 C 591.24 313.00 600.49 312.53 609.70 313.31 C 610.32 321.91 610.21 330.57 609.74 339.19 C 600.52 338.87 591.29 338.98 582.08 338.96 C 582.01 330.31 581.99 321.67 582.02 313.03 Z" />
<path fill="#ffffff" opacity="1.00" d=" M 462.01 316.00 C 474.00 315.99 485.99 315.98 497.99 316.02 C 497.99 324.67 498.00 333.33 498.00 341.99 C 486.00 342.02 474.00 342.02 462.00 341.99 C 461.98 333.32 461.98 324.66 462.01 316.00 Z" />
<path fill="#faaf40" opacity="1.00" d=" M 563.13 365.00 C 614.92 357.68 665.46 376.00 714.09 391.43 C 671.33 393.61 628.01 392.60 586.01 402.03 C 575.90 404.93 560.34 408.72 559.65 421.71 C 546.82 419.93 534.78 414.92 524.70 406.76 C 525.72 386.01 542.46 367.71 563.13 365.00 M 567.92 372.54 C 564.07 372.99 554.43 376.56 559.69 381.14 C 570.91 387.68 586.88 387.27 597.84 380.41 C 596.40 368.29 576.25 372.57 567.92 372.54 Z" />
<path fill="#ffffff" opacity="1.00" d=" M 567.92 372.54 C 576.25 372.57 596.40 368.29 597.84 380.41 C 586.88 387.27 570.91 387.68 559.69 381.14 C 554.43 376.56 564.07 372.99 567.92 372.54 Z" />
<path fill="#937963" opacity="1.00" d=" M 160.04 381.99 C 173.74 395.00 188.32 407.66 205.49 415.82 C 216.56 416.74 229.47 408.60 239.57 416.28 C 248.84 423.90 255.55 434.56 266.23 440.44 C 274.70 442.86 281.81 437.25 289.54 435.37 C 310.72 435.49 326.03 455.82 347.54 454.47 C 361.31 453.98 371.96 442.21 385.92 442.94 C 421.32 443.96 447.58 480.86 484.30 473.47 C 505.76 469.35 528.57 465.30 547.17 453.31 C 559.17 456.81 571.81 456.28 584.12 455.08 C 536.33 490.60 475.89 501.29 417.85 504.90 C 356.21 507.01 292.31 499.71 236.73 471.27 C 201.44 452.39 170.30 421.66 160.04 381.99 Z" />
<path fill="#f6921e" opacity="1.00" d=" M 656.36 406.34 C 668.59 403.83 681.14 403.90 693.50 402.41 C 651.72 417.86 610.02 436.97 565.03 439.99 C 547.17 439.35 519.77 429.15 524.70 406.76 C 534.78 414.92 546.82 419.93 559.65 421.71 C 562.40 422.09 565.28 422.19 568.09 422.10 C 598.10 421.28 627.32 413.26 656.36 406.34 Z" />
<path fill="#faaf40" opacity="1.00" d=" M 568.09 422.10 C 593.91 406.11 627.22 409.87 656.36 406.34 C 627.32 413.26 598.10 421.28 568.09 422.10 Z" />
</svg>
