<?xml version="1.0" encoding="UTF-8" ?>
<!DOCTYPE svg PUBLIC "-//W3C//DTD SVG 1.1//EN" "http://www.w3.org/Graphics/SVG/1.1/DTD/svg11.dtd">
<svg width="1180pt" height="892pt" viewBox="0 0 1180 892" version="1.1" xmlns="http://www.w3.org/2000/svg">
<path fill="#f6921e" opacity="1.00" d=" M 810.34 31.19 C 814.26 23.77 817.66 16.09 821.79 8.78 C 826.84 19.67 833.51 29.77 838.08 40.89 C 839.05 43.29 840.05 45.69 841.06 48.09 C 844.70 48.39 848.40 48.73 852.07 48.94 C 862.99 48.89 873.26 53.41 884.20 53.40 C 879.50 58.30 874.53 62.91 869.82 67.78 C 864.27 73.26 858.73 78.74 853.18 84.21 C 854.68 98.37 858.18 112.22 859.60 126.39 C 842.48 122.22 825.85 98.09 808.72 113.97 C 803.95 116.41 799.30 119.07 794.61 121.62 C 790.64 123.21 786.83 125.16 783.00 127.01 C 783.16 124.38 783.57 121.80 783.92 119.19 C 786.61 107.77 789.24 96.23 789.94 84.49 C 780.78 73.84 769.39 64.76 759.92 54.11 C 773.70 50.60 787.90 50.06 801.91 48.00 C 803.00 45.48 804.02 42.93 805.26 40.47 C 806.90 37.36 808.67 34.29 810.34 31.19 Z" />
<path fill="#000000" opacity="1.00" d=" M 799.10 28.78 C 802.90 29.31 806.62 30.20 810.34 31.19 C 808.67 34.29 806.90 37.36 805.26 40.47 C 803.04 36.66 801.04 32.73 799.10 28.78 Z" />
<path fill="#000000" opacity="1.00" d=" M 838.08 40.89 C 842.52 43.92 847.02 46.99 852.07 48.94 C 848.40 48.73 844.70 48.39 841.06 48.09 C 840.05 45.69 839.05 43.29 838.08 40.89 Z" />
<path fill="#000000" opacity="1.00" d=" M 853.18 84.21 C 858.73 78.74 864.27 73.26 869.82 67.78 C 891.09 93.35 900.03 128.36 893.19 161.03 C 905.61 166.79 917.07 174.30 928.86 181.22 C 932.77 166.02 933.12 150.34 933.21 134.75 C 943.89 144.27 932.12 159.20 933.22 171.22 C 942.96 167.48 951.08 160.45 961.11 157.39 C 971.44 160.06 980.11 166.93 989.86 171.16 C 991.57 158.69 980.07 143.76 990.75 133.73 C 1015.65 164.33 1021.55 208.65 1006.04 244.81 C 1013.41 250.77 1018.84 260.50 1025.79 265.81 C 1044.30 240.65 1048.06 205.91 1041.13 175.89 C 1052.32 178.28 1060.39 187.44 1071.01 191.26 C 1062.97 193.22 1053.85 192.62 1046.32 194.86 C 1053.62 205.96 1067.50 214.23 1076.24 225.20 C 1078.29 240.29 1071.63 255.07 1069.99 270.00 C 1082.59 264.61 1094.10 257.02 1106.63 251.47 C 1117.28 286.99 1104.55 326.36 1080.08 353.19 C 1101.20 401.67 1112.20 454.97 1110.01 507.96 C 1105.85 611.05 1051.94 708.86 972.37 773.37 C 839.28 883.94 647.01 911.97 485.10 854.89 C 459.42 873.13 427.00 880.45 395.83 877.43 C 382.44 874.68 366.55 868.75 362.57 854.09 C 359.81 834.70 376.83 820.17 391.17 810.22 C 381.69 805.39 373.54 797.44 364.12 793.29 C 328.59 812.14 283.89 821.38 246.13 803.94 C 229.17 798.40 220.28 775.21 232.19 761.12 C 245.31 740.81 269.36 733.23 291.07 725.94 C 239.05 665.27 204.63 587.60 202.96 507.10 C 159.14 513.73 115.67 522.37 71.84 528.76 C 89.49 480.62 109.61 433.18 126.81 384.85 C 93.96 395.00 63.15 411.50 30.44 421.93 C 24.55 404.32 16.92 387.30 10.07 370.05 C 82.17 342.23 153.69 312.61 225.74 284.76 C 204.83 342.48 180.63 399.10 160.00 456.90 C 175.21 457.00 189.82 451.90 204.77 449.80 C 214.51 375.90 249.20 306.28 299.85 251.86 C 306.82 246.60 298.84 237.97 298.73 231.29 C 288.20 192.84 299.03 144.22 331.79 120.01 C 342.18 144.40 356.23 167.31 374.03 187.13 C 438.01 144.94 511.55 117.74 587.52 107.71 C 596.14 113.19 602.20 121.69 610.31 127.82 C 610.25 132.64 610.15 137.51 609.34 142.28 C 535.40 147.75 462.46 172.80 400.74 213.97 C 406.61 220.53 413.16 226.40 419.81 232.15 C 470.75 278.98 528.44 321.45 563.55 382.46 C 579.54 412.68 591.46 446.48 589.51 481.12 C 584.12 440.35 563.22 403.18 536.34 372.66 C 492.48 321.04 435.49 283.40 384.58 239.42 C 360.85 218.99 337.19 196.31 325.49 166.63 C 314.74 196.90 323.07 229.70 338.04 256.96 C 364.82 304.31 405.15 342.31 448.14 374.90 C 393.89 361.05 347.21 325.35 314.36 280.62 C 293.38 301.02 308.62 332.68 328.17 347.83 C 372.90 387.23 428.88 411.48 484.10 432.44 C 430.30 432.13 375.21 415.86 331.35 384.18 C 328.15 415.48 341.82 449.04 369.00 466.02 C 407.44 491.12 454.90 494.50 499.39 497.23 C 443.23 502.13 374.75 506.18 331.72 462.29 C 306.14 434.52 303.87 393.72 306.62 358.07 C 296.90 350.78 293.14 338.59 285.16 330.15 C 229.30 419.10 222.26 537.29 271.16 630.80 C 289.01 668.52 315.69 701.55 345.74 730.26 C 509.43 883.73 788.72 886.74 957.00 738.97 C 928.78 751.70 902.21 768.23 873.52 779.83 C 870.58 767.16 865.98 754.98 862.14 742.58 C 861.89 741.45 861.66 740.32 861.47 739.20 C 857.47 741.10 853.81 743.64 850.11 746.04 C 830.71 757.85 811.95 770.73 792.17 781.89 C 788.51 772.05 785.34 762.03 781.88 752.12 C 778.02 738.29 773.44 724.66 768.40 711.22 C 738.47 731.09 708.03 750.19 677.96 769.86 C 673.62 772.58 669.28 775.29 664.88 777.91 C 665.62 774.01 666.35 770.12 667.06 766.22 C 674.27 727.46 682.37 688.87 688.98 650.01 C 661.14 657.78 634.06 667.99 606.24 675.84 C 603.10 664.28 598.65 653.11 596.12 641.38 C 642.95 627.15 689.16 610.71 736.20 597.17 C 730.39 631.90 722.25 666.26 717.12 701.08 C 741.48 687.39 764.34 668.93 788.68 656.39 C 797.21 679.26 803.64 703.81 812.04 727.06 C 831.93 715.01 851.58 702.51 871.12 689.89 C 874.56 687.80 878.09 685.83 881.65 683.92 C 882.34 686.05 883.07 688.19 883.75 690.36 C 887.16 703.34 892.20 715.85 895.25 728.94 C 913.16 721.63 929.51 711.16 947.05 703.07 C 971.40 691.40 995.04 678.24 1019.29 666.36 C 1029.18 656.52 1034.58 643.21 1041.08 631.06 C 1093.21 531.22 1081.96 404.01 1015.77 313.31 C 1012.11 307.81 1008.22 302.48 1003.82 297.57 C 1010.17 291.06 1017.79 285.78 1023.33 278.50 C 1012.67 276.50 1001.70 276.17 991.11 274.09 C 985.96 264.27 982.25 253.52 975.46 244.63 C 973.40 249.49 971.55 254.46 969.11 259.15 C 887.15 181.21 773.13 139.49 660.65 140.27 C 654.43 124.97 674.07 117.74 681.26 106.91 C 676.42 106.02 671.56 105.22 666.74 104.32 C 706.06 102.64 745.69 110.10 783.92 119.19 C 783.57 121.80 783.16 124.38 783.00 127.01 C 786.83 125.16 790.64 123.21 794.61 121.62 C 798.58 122.87 802.56 124.24 806.68 125.03 C 807.34 121.34 808.05 117.66 808.72 113.97 C 825.85 98.09 842.48 122.22 859.60 126.39 C 858.18 112.22 854.68 98.37 853.18 84.21 Z" />
<path fill="#f6921e" opacity="1.00" d=" M 620.52 101.60 C 626.24 92.44 629.42 81.95 634.94 72.67 C 640.86 81.72 645.69 91.51 649.40 101.66 C 655.28 101.85 660.99 103.25 666.74 104.32 C 671.56 105.22 676.42 106.02 681.26 106.91 C 674.07 117.74 654.43 124.97 660.65 140.27 C 661.92 147.19 662.79 154.18 663.87 161.13 C 653.87 157.24 645.09 150.70 634.98 147.17 C 624.73 150.73 615.74 157.43 605.78 161.80 C 606.92 155.28 608.25 148.80 609.34 142.28 C 610.15 137.51 610.25 132.64 610.31 127.82 C 602.20 121.69 596.14 113.19 587.52 107.71 C 596.92 101.61 610.07 105.88 620.52 101.60 Z" />
<path fill="#f6921e" opacity="1.00" d=" M 951.32 102.27 C 955.52 96.16 956.48 87.19 962.61 82.73 C 967.22 92.39 971.40 102.25 976.22 111.82 C 987.34 112.68 998.38 114.24 1009.29 116.63 C 1002.87 122.07 996.57 127.66 990.75 133.73 C 980.07 143.76 991.57 158.69 989.86 171.16 C 980.11 166.93 971.44 160.06 961.11 157.39 C 951.08 160.45 942.96 167.48 933.22 171.22 C 932.12 159.20 943.89 144.27 933.21 134.75 C 926.91 128.64 921.20 121.80 913.99 116.73 C 918.90 116.73 923.42 114.74 928.16 113.84 C 937.92 114.23 949.50 113.89 951.32 102.27 Z" />
<path fill="#000000" opacity="1.00" d=" M 919.90 94.27 C 931.05 93.31 941.22 98.33 951.32 102.27 C 949.50 113.89 937.92 114.23 928.16 113.84 C 926.28 106.94 922.06 101.03 919.90 94.27 Z" />
<path fill="#ccff00" opacity="1.00" d=" M 660.65 140.27 C 773.13 139.49 887.15 181.21 969.11 259.15 C 966.94 263.29 964.65 267.35 962.42 271.44 C 941.83 256.93 919.52 245.14 897.03 233.91 C 873.68 210.77 842.54 197.61 811.45 188.51 C 788.90 183.42 763.70 176.38 741.95 187.83 C 633.41 172.39 519.53 185.46 419.81 232.15 C 413.16 226.40 406.61 220.53 400.74 213.97 C 462.46 172.80 535.40 147.75 609.34 142.28 C 608.25 148.80 606.92 155.28 605.78 161.80 C 615.74 157.43 624.73 150.73 634.98 147.17 C 645.09 150.70 653.87 157.24 663.87 161.13 C 662.79 154.18 661.92 147.19 660.65 140.27 Z" />
<path fill="#f6921e" opacity="1.00" d=" M 1089.66 188.65 C 1096.32 175.34 1102.85 161.95 1109.78 148.78 C 1115.98 161.97 1123.75 174.43 1129.25 187.93 C 1144.15 189.81 1159.02 193.65 1174.19 194.34 C 1163.74 205.34 1152.08 215.19 1142.23 226.76 C 1143.47 241.19 1146.99 255.47 1149.18 269.85 C 1135.67 264.20 1123.39 256.05 1110.06 250.00 C 1108.90 250.48 1107.75 250.96 1106.63 251.47 C 1094.10 257.02 1082.59 264.61 1069.99 270.00 C 1071.63 255.07 1078.29 240.29 1076.24 225.20 C 1067.50 214.23 1053.62 205.96 1046.32 194.86 C 1053.85 192.62 1062.97 193.22 1071.01 191.26 C 1077.19 190.29 1083.47 189.72 1089.66 188.65 Z" />
<path fill="#99cc33" opacity="1.00" d=" M 325.49 166.63 C 337.19 196.31 360.85 218.99 384.58 239.42 C 435.49 283.40 492.48 321.04 536.34 372.66 C 563.22 403.18 584.12 440.35 589.51 481.12 C 591.46 446.48 579.54 412.68 563.55 382.46 C 528.44 321.45 470.75 278.98 419.81 232.15 C 519.53 185.46 633.41 172.39 741.95 187.83 C 735.04 194.82 737.92 206.35 744.06 212.95 C 757.73 229.37 777.33 239.34 796.41 248.20 C 788.88 249.29 781.40 250.69 773.94 252.12 C 781.45 259.67 790.41 266.12 796.56 274.87 C 797.15 285.75 792.82 296.19 792.00 306.99 C 801.97 302.71 811.08 296.61 821.02 292.33 C 831.07 296.30 840.02 302.70 849.94 307.07 C 848.73 296.09 846.26 285.30 845.02 274.33 C 848.25 271.21 851.45 268.05 854.68 264.93 C 870.18 265.32 890.68 270.17 902.60 257.08 C 906.58 249.18 901.89 240.33 897.03 233.91 C 919.52 245.14 941.83 256.93 962.42 271.44 C 962.16 271.94 961.65 272.94 961.39 273.44 C 950.84 275.79 939.92 276.28 929.56 279.49 C 937.21 286.57 944.52 294.01 951.92 301.36 C 951.59 312.03 949.12 322.48 948.09 333.09 C 957.92 329.56 966.46 323.16 976.09 319.33 C 986.11 322.72 994.80 329.60 1004.90 333.11 C 1004.36 322.20 1000.66 311.60 1000.70 300.70 C 1005.58 305.06 1010.67 309.19 1015.77 313.31 C 1081.96 404.01 1093.21 531.22 1041.08 631.06 C 1012.70 658.72 980.84 682.46 947.05 703.07 C 929.51 711.16 913.16 721.63 895.25 728.94 C 892.20 715.85 887.16 703.34 883.75 690.36 C 915.43 690.85 946.83 678.38 970.39 657.38 C 1027.37 615.62 1046.85 538.31 1036.91 471.09 C 1027.44 417.30 997.53 360.73 943.10 341.91 C 902.61 320.06 850.67 323.91 813.02 350.01 C 748.93 393.87 725.03 479.93 740.44 553.58 C 752.92 618.58 802.38 681.58 871.12 689.89 C 851.58 702.51 831.93 715.01 812.04 727.06 C 803.64 703.81 797.21 679.26 788.68 656.39 C 764.34 668.93 741.48 687.39 717.12 701.08 C 722.25 666.26 730.39 631.90 736.20 597.17 C 689.16 610.71 642.95 627.15 596.12 641.38 C 598.65 653.11 603.10 664.28 606.24 675.84 C 634.06 667.99 661.14 657.78 688.98 650.01 C 682.37 688.87 674.27 727.46 667.06 766.22 C 643.04 761.84 613.90 751.23 593.55 770.66 C 566.65 780.51 545.79 754.41 524.98 742.09 C 504.03 726.62 477.39 737.81 454.86 742.85 C 437.00 731.39 419.51 719.29 402.80 706.21 C 396.91 698.74 389.88 692.29 381.91 687.12 C 381.42 687.30 380.46 687.67 379.97 687.86 C 332.28 646.89 291.47 597.92 261.25 542.71 C 271.47 591.89 295.72 637.27 326.10 676.90 C 306.25 663.46 288.73 647.01 271.16 630.80 C 222.26 537.29 229.30 419.10 285.16 330.15 C 293.14 338.59 296.90 350.78 306.62 358.07 C 303.87 393.72 306.14 434.52 331.72 462.29 C 374.75 506.18 443.23 502.13 499.39 497.23 C 454.90 494.50 407.44 491.12 369.00 466.02 C 341.82 449.04 328.15 415.48 331.35 384.18 C 375.21 415.86 430.30 432.13 484.10 432.44 C 428.88 411.48 372.90 387.23 328.17 347.83 C 308.62 332.68 293.38 301.02 314.36 280.62 C 347.21 325.35 393.89 361.05 448.14 374.90 C 405.15 342.31 364.82 304.31 338.04 256.96 C 323.07 229.70 314.74 196.90 325.49 166.63 M 541.21 199.74 C 536.64 209.84 531.76 219.80 526.55 229.58 C 515.74 231.36 504.81 232.30 494.00 234.04 C 502.06 241.41 510.41 248.80 516.96 257.51 C 515.97 268.18 513.61 278.67 512.29 289.30 C 522.35 285.02 531.28 277.87 541.86 275.01 C 551.52 279.06 560.44 284.76 570.10 288.89 C 569.05 278.27 566.14 267.94 565.02 257.33 C 572.83 249.66 580.71 242.07 588.18 234.06 C 577.67 232.02 566.99 230.91 556.36 229.77 C 550.84 220.01 546.85 209.46 541.21 199.74 M 653.21 306.74 C 648.64 316.84 643.77 326.79 638.54 336.57 C 628.05 338.60 617.36 339.17 606.86 341.07 C 614.21 348.99 621.95 356.55 629.80 363.99 C 627.25 374.63 625.97 385.51 624.29 396.31 C 634.35 392.02 643.28 384.87 653.86 382.01 C 663.52 386.06 672.44 391.78 682.12 395.88 C 680.89 385.28 678.14 374.93 677.03 364.32 C 684.83 356.65 692.72 349.07 700.18 341.06 C 689.59 338.95 678.78 338.17 668.19 336.16 C 662.41 326.84 658.93 316.16 653.21 306.74 M 676.55 427.45 C 644.76 436.57 640.39 481.74 654.02 507.01 C 660.47 521.15 678.20 531.91 692.85 522.01 C 715.76 505.02 718.25 470.02 706.01 445.95 C 700.59 435.14 689.49 425.25 676.55 427.45 Z" />
<path fill="#ffffff" opacity="1.00" d=" M 741.95 187.83 C 763.70 176.38 788.90 183.42 811.45 188.51 C 842.54 197.61 873.68 210.77 897.03 233.91 C 901.89 240.33 906.58 249.18 902.60 257.08 C 890.68 270.17 870.18 265.32 854.68 264.93 C 859.28 260.48 864.02 256.15 868.41 251.48 C 857.71 249.71 846.89 249.00 836.12 247.98 C 830.23 239.12 827.83 226.64 821.05 219.15 C 814.93 227.15 811.11 238.07 806.14 247.35 C 802.85 247.64 799.67 247.96 796.41 248.20 C 777.33 239.34 757.73 229.37 744.06 212.95 C 737.92 206.35 735.04 194.82 741.95 187.83 Z" />
<path fill="#f6921e" opacity="1.00" d=" M 541.21 199.74 C 546.85 209.46 550.84 220.01 556.36 229.77 C 566.99 230.91 577.67 232.02 588.18 234.06 C 580.71 242.07 572.83 249.66 565.02 257.33 C 566.14 267.94 569.05 278.27 570.10 288.89 C 560.44 284.76 551.52 279.06 541.86 275.01 C 531.28 277.87 522.35 285.02 512.29 289.30 C 513.61 278.67 515.97 268.18 516.96 257.51 C 510.41 248.80 502.06 241.41 494.00 234.04 C 504.81 232.30 515.74 231.36 526.55 229.58 C 531.76 219.80 536.64 209.84 541.21 199.74 Z" />
<path fill="#f6921e" opacity="1.00" d=" M 806.14 247.35 C 811.11 238.07 814.93 227.15 821.05 219.15 C 827.83 226.64 830.23 239.12 836.12 247.98 C 846.89 249.00 857.71 249.71 868.41 251.48 C 864.02 256.15 859.28 260.48 854.68 264.93 C 851.45 268.05 848.25 271.21 845.02 274.33 C 846.26 285.30 848.73 296.09 849.94 307.07 C 840.02 302.70 831.07 296.30 821.02 292.33 C 811.08 296.61 801.97 302.71 792.00 306.99 C 792.82 296.19 797.15 285.75 796.56 274.87 C 790.41 266.12 781.45 259.67 773.94 252.12 C 781.40 250.69 788.88 249.29 796.41 248.20 C 799.67 247.96 802.85 247.64 806.14 247.35 Z" />
<path fill="#f6921e" opacity="1.00" d=" M 975.46 244.63 C 982.25 253.52 985.96 264.27 991.11 274.09 C 1001.70 276.17 1012.67 276.50 1023.33 278.50 C 1017.79 285.78 1010.17 291.06 1003.82 297.57 C 1002.75 298.59 1001.70 299.62 1000.70 300.70 C 1000.66 311.60 1004.36 322.20 1004.90 333.11 C 994.80 329.60 986.11 322.72 976.09 319.33 C 966.46 323.16 957.92 329.56 948.09 333.09 C 949.12 322.48 951.59 312.03 951.92 301.36 C 944.52 294.01 937.21 286.57 929.56 279.49 C 939.92 276.28 950.84 275.79 961.39 273.44 C 961.65 272.94 962.16 271.94 962.42 271.44 C 964.65 267.35 966.94 263.29 969.11 259.15 C 971.55 254.46 973.40 249.49 975.46 244.63 Z" />
<path fill="#cbfe01" opacity="1.00" d=" M 1000.70 300.70 C 1001.70 299.62 1002.75 298.59 1003.82 297.57 C 1008.22 302.48 1012.11 307.81 1015.77 313.31 C 1010.67 309.19 1005.58 305.06 1000.70 300.70 Z" />
<path fill="#f6921e" opacity="1.00" d=" M 653.21 306.74 C 658.93 316.16 662.41 326.84 668.19 336.16 C 678.78 338.17 689.59 338.95 700.18 341.06 C 692.72 349.07 684.83 356.65 677.03 364.32 C 678.14 374.93 680.89 385.28 682.12 395.88 C 672.44 391.78 663.52 386.06 653.86 382.01 C 643.28 384.87 634.35 392.02 624.29 396.31 C 625.97 385.51 627.25 374.63 629.80 363.99 C 621.95 356.55 614.21 348.99 606.86 341.07 C 617.36 339.17 628.05 338.60 638.54 336.57 C 643.77 326.79 648.64 316.84 653.21 306.74 Z" />
<path fill="#669900" opacity="1.00" d=" M 813.02 350.01 C 850.67 323.91 902.61 320.06 943.10 341.91 C 897.92 326.04 847.57 349.45 821.56 387.56 C 769.97 460.79 772.35 570.82 832.74 638.26 C 865.65 678.03 928.02 687.60 970.39 657.38 C 946.83 678.38 915.43 690.85 883.75 690.36 C 883.07 688.19 882.34 686.05 881.65 683.92 C 878.09 685.83 874.56 687.80 871.12 689.89 C 802.38 681.58 752.92 618.58 740.44 553.58 C 725.03 479.93 748.93 393.87 813.02 350.01 Z" />
<path fill="#000000" opacity="1.00" d=" M 821.56 387.56 C 847.57 349.45 897.92 326.04 943.10 341.91 C 997.53 360.73 1027.44 417.30 1036.91 471.09 C 1046.85 538.31 1027.37 615.62 970.39 657.38 C 928.02 687.60 865.65 678.03 832.74 638.26 C 772.35 570.82 769.97 460.79 821.56 387.56 M 893.10 373.17 C 852.80 387.51 829.72 429.12 822.59 469.22 L 822.46 468.31 C 820.02 474.51 819.94 481.27 819.94 487.84 C 821.31 487.86 822.68 487.89 824.06 487.92 C 884.28 488.30 944.51 487.56 1004.72 488.29 C 1001.62 453.45 989.05 418.19 963.81 393.19 C 945.74 375.06 918.18 365.16 893.10 373.17 M 818.93 524.08 C 824.30 569.74 844.90 620.12 890.38 638.56 C 929.11 652.74 969.30 624.63 985.06 590.05 C 997.49 570.37 1002.35 546.97 1005.13 524.13 C 948.04 523.91 890.94 523.90 833.85 524.14 C 828.88 523.92 823.87 524.03 818.93 524.08 Z" />
<path fill="#99cc33" opacity="1.00" d=" M 893.10 373.17 C 918.18 365.16 945.74 375.06 963.81 393.19 C 989.05 418.19 1001.62 453.45 1004.72 488.29 C 944.51 487.56 884.28 488.30 824.06 487.92 C 823.93 481.66 823.45 475.42 822.59 469.22 C 829.72 429.12 852.80 387.51 893.10 373.17 Z" />
<path fill="#669900" opacity="1.00" d=" M 676.55 427.45 C 689.49 425.25 700.59 435.14 706.01 445.95 C 718.25 470.02 715.76 505.02 692.85 522.01 C 678.20 531.91 660.47 521.15 654.02 507.01 C 640.39 481.74 644.76 436.57 676.55 427.45 Z" />
<path fill="#669900" opacity="1.00" d=" M 822.46 468.31 L 822.59 469.22 C 823.45 475.42 823.93 481.66 824.06 487.92 C 822.68 487.89 821.31 487.86 819.94 487.84 C 819.94 481.27 820.02 474.51 822.46 468.31 Z" />
<path fill="#669900" opacity="1.00" d=" M 818.93 524.08 C 823.87 524.03 828.88 523.92 833.85 524.14 C 845.93 558.13 869.38 590.88 904.34 603.70 C 931.37 613.96 962.66 607.76 985.06 590.05 C 969.30 624.63 929.11 652.74 890.38 638.56 C 844.90 620.12 824.30 569.74 818.93 524.08 Z" />
<path fill="#99cc33" opacity="1.00" d=" M 833.85 524.14 C 890.94 523.90 948.04 523.91 1005.13 524.13 C 1002.35 546.97 997.49 570.37 985.06 590.05 C 962.66 607.76 931.37 613.96 904.34 603.70 C 869.38 590.88 845.93 558.13 833.85 524.14 Z" />
<path fill="#ffffff" opacity="1.00" d=" M 261.25 542.71 C 291.47 597.92 332.28 646.89 379.97 687.86 C 387.41 694.18 394.93 700.43 402.80 706.21 C 419.51 719.29 437.00 731.39 454.86 742.85 C 509.26 777.34 568.14 805.25 629.99 823.50 C 515.68 815.34 399.12 768.35 326.10 676.90 C 295.72 637.27 271.47 591.89 261.25 542.71 Z" />
<path fill="#669900" opacity="1.00" d=" M 271.16 630.80 C 288.73 647.01 306.25 663.46 326.10 676.90 C 399.12 768.35 515.68 815.34 629.99 823.50 C 568.14 805.25 509.26 777.34 454.86 742.85 C 477.39 737.81 504.03 726.62 524.98 742.09 C 545.79 754.41 566.65 780.51 593.55 770.66 C 613.90 751.23 643.04 761.84 667.06 766.22 C 666.35 770.12 665.62 774.01 664.88 777.91 C 669.28 775.29 673.62 772.58 677.96 769.86 C 691.75 771.16 705.33 775.37 719.26 774.60 C 733.79 774.25 733.36 754.10 746.16 750.86 C 758.02 748.78 770.13 749.94 781.88 752.12 C 785.34 762.03 788.51 772.05 792.17 781.89 C 811.95 770.73 830.71 757.85 850.11 746.04 C 854.11 744.89 858.16 743.86 862.14 742.58 C 865.98 754.98 870.58 767.16 873.52 779.83 C 902.21 768.23 928.78 751.70 957.00 738.97 C 788.72 886.74 509.43 883.73 345.74 730.26 C 315.69 701.55 289.01 668.52 271.16 630.80 Z" />
<path fill="#669900" opacity="1.00" d=" M 947.05 703.07 C 980.84 682.46 1012.70 658.72 1041.08 631.06 C 1034.58 643.21 1029.18 656.52 1019.29 666.36 C 995.04 678.24 971.40 691.40 947.05 703.07 Z" />
<path fill="#77a61b" opacity="1.00" d=" M 379.97 687.86 C 380.46 687.67 381.42 687.30 381.91 687.12 C 389.88 692.29 396.91 698.74 402.80 706.21 C 394.93 700.43 387.41 694.18 379.97 687.86 Z" />
<path fill="#99cc33" opacity="1.00" d=" M 768.40 711.22 C 773.44 724.66 778.02 738.29 781.88 752.12 C 770.13 749.94 758.02 748.78 746.16 750.86 C 733.36 754.10 733.79 774.25 719.26 774.60 C 705.33 775.37 691.75 771.16 677.96 769.86 C 708.03 750.19 738.47 731.09 768.40 711.22 Z" />
<path fill="#83b028" opacity="1.00" d=" M 850.11 746.04 C 853.81 743.64 857.47 741.10 861.47 739.20 C 861.66 740.32 861.89 741.45 862.14 742.58 C 858.16 743.86 854.11 744.89 850.11 746.04 Z" />
</svg>
