<?xml version="1.0" encoding="UTF-8" ?>
<!DOCTYPE svg PUBLIC "-//W3C//DTD SVG 1.1//EN" "http://www.w3.org/Graphics/SVG/1.1/DTD/svg11.dtd">
<svg width="1125pt" height="874pt" viewBox="0 0 1125 874" version="1.1" xmlns="http://www.w3.org/2000/svg">
<path fill="#000000" opacity="1.00" d=" M 800.99 8.06 C 861.93 14.51 908.45 78.89 893.99 138.84 C 905.27 146.51 918.27 152.33 929.69 160.13 C 937.75 131.98 936.13 100.04 921.04 74.47 C 929.38 70.04 940.08 77.57 948.86 80.14 C 1003.62 101.14 1031.30 170.72 1007.15 223.85 C 1014.32 230.38 1020.06 238.26 1026.81 245.21 C 1045.80 219.37 1048.65 185.42 1042.32 154.75 C 1112.64 178.67 1134.79 280.28 1081.04 331.31 C 1122.62 423.82 1121.67 534.61 1075.04 625.06 C 1033.62 710.56 958.15 776.18 872.82 815.84 C 756.22 869.42 619.31 877.42 497.29 837.73 C 490.87 836.21 484.63 831.85 477.95 832.79 C 454.38 852.93 424.01 867.13 392.39 864.78 C 381.35 862.76 368.97 855.02 369.03 842.55 C 367.57 821.84 383.84 805.87 397.05 792.13 C 383.27 783.74 369.86 774.75 357.02 764.98 C 336.36 783.74 310.73 797.42 283.13 802.28 C 268.15 804.85 250.73 802.79 239.89 791.16 C 230.01 776.02 236.64 757.10 247.16 744.16 C 258.01 726.58 275.66 715.48 293.02 705.25 C 245.58 651.05 212.41 582.22 205.92 510.07 C 170.15 525.24 135.15 542.65 99.11 557.08 C 101.43 516.85 107.18 477.01 109.85 436.81 C 84.27 448.77 59.58 462.90 34.05 475.01 C 25.64 458.43 16.96 441.97 8.92 425.23 C 64.72 396.62 120.48 367.92 176.20 339.13 C 171.75 381.70 168.47 424.25 163.76 466.81 C 177.67 462.44 190.14 454.63 203.82 449.71 C 207.21 400.58 221.57 352.29 244.95 308.96 C 324.09 162.08 494.68 80.24 657.99 83.01 C 708.73 80.46 759.03 90.65 807.62 103.86 C 820.06 72.71 816.46 37.42 800.99 8.06 M 604.95 120.97 C 485.83 133.62 368.37 192.17 298.34 291.37 C 231.68 381.50 220.03 509.36 271.97 609.04 C 303.47 674.23 357.46 726.98 419.41 763.59 C 582.78 859.37 806.33 846.17 951.95 722.94 C 931.76 733.18 911.98 744.31 891.98 754.94 C 878.64 746.12 866.45 735.39 852.88 727.12 C 834.81 735.56 818.06 747.36 799.96 756.10 C 790.39 747.44 781.72 737.87 772.39 728.96 L 771.43 728.96 L 772.21 728.40 C 762.72 720.56 755.25 709.52 745.12 703.09 C 726.71 714.92 709.91 730.08 691.14 741.00 C 661.33 719.52 633.38 694.99 603.88 672.83 C 625.50 649.79 647.09 626.53 669.17 604.06 C 678.65 610.37 687.10 619.58 695.19 627.98 C 683.99 642.53 668.81 654.48 658.08 668.87 C 668.61 678.41 680.43 687.53 692.12 695.88 C 711.84 683.96 729.62 667.26 749.85 656.12 C 769.33 673.33 786.68 693.53 806.10 711.05 C 823.04 702.65 838.86 692.05 855.90 683.88 C 867.83 692.69 879.81 701.43 891.77 710.21 C 894.25 713.73 898.23 710.16 901.03 709.11 C 941.04 687.83 981.14 666.67 1020.93 645.00 C 1029.78 634.85 1036.50 622.36 1041.92 609.93 C 1094.98 511.00 1082.84 383.15 1017.13 292.88 C 926.58 163.21 758.66 104.14 604.95 120.97 Z" />
<path fill="#ccff00" opacity="1.00" d=" M 604.95 120.97 C 758.66 104.14 926.58 163.21 1017.13 292.88 C 981.94 260.14 941.34 233.66 898.06 212.92 C 873.56 188.49 840.50 175.36 807.81 166.06 C 786.67 161.90 763.16 156.06 743.02 166.79 C 586.47 143.39 417.20 184.10 298.34 291.37 C 368.37 192.17 485.83 133.62 604.95 120.97 Z" />
<path fill="#99cc33" opacity="1.00" d=" M 298.34 291.37 C 417.20 184.10 586.47 143.39 743.02 166.79 C 737.96 171.66 737.91 179.84 741.00 185.79 C 753.02 205.61 774.88 216.30 795.09 225.90 C 825.59 239.25 859.61 249.44 893.04 243.24 C 908.59 240.21 906.92 221.88 898.06 212.92 C 941.34 233.66 981.94 260.14 1017.13 292.88 C 1082.84 383.15 1094.98 511.00 1041.92 609.93 C 998.96 652.77 947.11 685.77 891.77 710.21 C 879.81 701.43 867.83 692.69 855.90 683.88 C 838.86 692.05 823.04 702.65 806.10 711.05 C 786.68 693.53 769.33 673.33 749.85 656.12 C 729.62 667.26 711.84 683.96 692.12 695.88 C 680.43 687.53 668.61 678.41 658.08 668.87 C 668.81 654.48 683.99 642.53 695.19 627.98 C 687.10 619.58 678.65 610.37 669.17 604.06 C 647.09 626.53 625.50 649.79 603.88 672.83 C 633.38 694.99 661.33 719.52 691.14 741.00 C 709.91 730.08 726.71 714.92 745.12 703.09 C 755.25 709.52 762.72 720.56 772.21 728.40 L 771.43 728.96 C 763.58 729.44 755.55 728.01 747.82 729.58 C 733.93 733.06 734.93 754.94 718.30 753.75 C 685.97 753.14 655.29 739.40 623.00 738.01 C 605.91 735.77 595.91 755.99 578.50 751.86 C 553.12 746.92 536.98 723.23 513.09 714.79 C 493.81 709.65 474.50 717.90 455.85 721.80 C 442.62 713.43 429.85 704.37 416.85 695.67 C 423.54 679.76 431.85 664.34 443.42 651.42 C 482.53 603.19 545.49 580.57 580.73 528.74 C 593.20 508.21 596.27 482.97 590.91 459.71 C 588.05 487.49 571.81 512.10 551.19 530.19 C 514.53 562.66 468.25 582.65 433.70 617.70 C 411.90 638.04 396.68 665.63 392.31 695.21 C 380.05 683.22 374.75 664.13 382.30 648.23 C 400.67 605.87 440.33 578.38 477.47 553.43 C 430.36 564.87 382.56 589.96 360.66 635.39 C 354.12 617.45 365.63 599.24 377.67 586.67 C 406.72 557.84 444.15 539.11 481.98 524.53 C 437.02 528.32 388.85 541.92 357.12 576.18 C 352.08 561.15 360.31 545.69 374.03 539.01 C 420.24 512.47 479.68 511.50 518.97 472.92 C 486.70 495.82 445.64 498.08 408.06 505.10 C 384.66 509.35 358.66 513.36 341.43 531.43 C 326.27 547.87 331.08 572.47 336.82 591.97 C 334.63 600.86 330.66 609.55 331.89 619.10 C 304.79 589.27 281.33 556.18 262.02 520.88 C 272.81 570.11 296.31 616.14 327.23 655.77 C 307.14 642.27 289.34 625.78 271.97 609.04 C 220.03 509.36 231.68 381.50 298.34 291.37 M 852.10 311.08 C 806.66 324.35 771.63 361.72 753.59 404.57 C 731.04 457.39 731.60 519.30 753.91 572.09 C 772.26 615.37 808.26 653.16 854.62 665.37 C 894.41 675.87 939.92 665.04 970.09 637.08 C 1031.69 593.30 1050.51 508.50 1035.36 437.69 C 1024.43 387.59 993.01 336.37 941.77 320.30 C 915.19 304.71 881.54 303.80 852.10 311.08 M 677.65 406.44 C 644.12 416.56 640.36 465.08 658.08 490.87 C 665.47 503.76 683.56 509.66 695.70 499.70 C 716.24 482.51 718.64 451.06 708.37 427.60 C 703.50 415.72 691.49 403.77 677.65 406.44 Z" />
<path fill="#ffffff" opacity="1.00" d=" M 743.02 166.79 C 763.16 156.06 786.67 161.90 807.81 166.06 C 840.50 175.36 873.56 188.49 898.06 212.92 C 906.92 221.88 908.59 240.21 893.04 243.24 C 859.61 249.44 825.59 239.25 795.09 225.90 C 774.88 216.30 753.02 205.61 741.00 185.79 C 737.91 179.84 737.96 171.66 743.02 166.79 Z" />
<path fill="#669900" opacity="1.00" d=" M 852.10 311.08 C 881.54 303.80 915.19 304.71 941.77 320.30 C 909.02 309.98 872.08 318.99 846.37 341.36 C 794.52 384.90 779.45 459.45 789.28 523.74 C 797.90 568.79 819.95 614.08 859.90 639.10 C 892.86 660.28 937.79 658.94 970.09 637.08 C 939.92 665.04 894.41 675.87 854.62 665.37 C 808.26 653.16 772.26 615.37 753.91 572.09 C 731.60 519.30 731.04 457.39 753.59 404.57 C 771.63 361.72 806.66 324.35 852.10 311.08 Z" />
<path fill="#000000" opacity="1.00" d=" M 846.37 341.36 C 872.08 318.99 909.02 309.98 941.77 320.30 C 993.01 336.37 1024.43 387.59 1035.36 437.69 C 1050.51 508.50 1031.69 593.30 970.09 637.08 C 937.79 658.94 892.86 660.28 859.90 639.10 C 819.95 614.08 797.90 568.79 789.28 523.74 C 779.45 459.45 794.52 384.90 846.37 341.36 M 883.69 356.71 C 849.58 374.70 829.48 412.17 823.75 449.26 L 823.10 448.60 C 811.84 509.20 828.68 588.91 890.08 616.87 C 928.83 632.69 969.99 603.80 986.23 569.30 C 1006.60 533.08 1012.23 488.57 1002.94 448.03 C 996.29 413.00 978.92 377.42 947.13 358.85 C 928.51 346.76 903.21 346.53 883.69 356.71 Z" />
<path fill="#ffffff" opacity="1.00" d=" M 883.69 356.71 C 903.21 346.53 928.51 346.76 947.13 358.85 C 978.92 377.42 996.29 413.00 1002.94 448.03 C 1012.23 488.57 1006.60 533.08 986.23 569.30 C 958.10 590.95 917.00 594.37 887.28 573.73 C 846.48 546.48 826.84 496.69 823.75 449.26 C 829.48 412.17 849.58 374.70 883.69 356.71 M 925.12 446.12 C 909.68 470.82 908.99 503.23 921.77 529.22 C 927.45 542.59 941.48 554.47 956.81 549.97 C 974.89 542.33 984.24 521.94 985.14 503.37 C 973.50 500.66 961.63 498.96 950.05 495.85 C 959.90 483.42 971.14 472.13 980.99 459.72 C 977.62 446.79 967.60 435.15 954.62 431.11 C 942.32 428.30 931.92 436.98 925.12 446.12 Z" />
<path fill="#669900" opacity="1.00" d=" M 677.65 406.44 C 691.49 403.77 703.50 415.72 708.37 427.60 C 718.64 451.06 716.24 482.51 695.70 499.70 C 683.56 509.66 665.47 503.76 658.08 490.87 C 640.36 465.08 644.12 416.56 677.65 406.44 Z" />
<path fill="#000000" opacity="1.00" d=" M 925.12 446.12 C 931.92 436.98 942.32 428.30 954.62 431.11 C 967.60 435.15 977.62 446.79 980.99 459.72 C 971.14 472.13 959.90 483.42 950.05 495.85 C 961.63 498.96 973.50 500.66 985.14 503.37 C 984.24 521.94 974.89 542.33 956.81 549.97 C 941.48 554.47 927.45 542.59 921.77 529.22 C 908.99 503.23 909.68 470.82 925.12 446.12 Z" />
<path fill="#d0d2d3" opacity="1.00" d=" M 823.10 448.60 L 823.75 449.26 C 826.84 496.69 846.48 546.48 887.28 573.73 C 917.00 594.37 958.10 590.95 986.23 569.30 C 969.99 603.80 928.83 632.69 890.08 616.87 C 828.68 588.91 811.84 509.20 823.10 448.60 Z" />
<path fill="#000000" opacity="1.00" d=" M 551.19 530.19 C 571.81 512.10 588.05 487.49 590.91 459.71 C 596.27 482.97 593.20 508.21 580.73 528.74 C 545.49 580.57 482.53 603.19 443.42 651.42 C 431.85 664.34 423.54 679.76 416.85 695.67 C 413.08 707.00 409.01 718.83 409.66 730.92 C 409.10 733.28 408.36 735.61 407.65 737.94 C 381.47 734.10 357.58 713.15 354.89 686.03 C 354.05 680.64 354.85 674.75 352.85 669.64 C 340.79 655.62 332.01 637.90 331.89 619.10 C 330.66 609.55 334.63 600.86 336.82 591.97 C 331.08 572.47 326.27 547.87 341.43 531.43 C 358.66 513.36 384.66 509.35 408.06 505.10 C 445.64 498.08 486.70 495.82 518.97 472.92 C 479.68 511.50 420.24 512.47 374.03 539.01 C 360.31 545.69 352.08 561.15 357.12 576.18 C 388.85 541.92 437.02 528.32 481.98 524.53 C 444.15 539.11 406.72 557.84 377.67 586.67 C 365.63 599.24 354.12 617.45 360.66 635.39 C 382.56 589.96 430.36 564.87 477.47 553.43 C 440.33 578.38 400.67 605.87 382.30 648.23 C 374.75 664.13 380.05 683.22 392.31 695.21 C 396.68 665.63 411.90 638.04 433.70 617.70 C 468.25 582.65 514.53 562.66 551.19 530.19 Z" />
<path fill="#ffffff" opacity="1.00" d=" M 262.02 520.88 C 281.33 556.18 304.79 589.27 331.89 619.10 C 332.01 637.90 340.79 655.62 352.85 669.64 C 354.85 674.75 354.05 680.64 354.89 686.03 C 344.58 676.97 336.32 665.97 327.23 655.77 C 296.31 616.14 272.81 570.11 262.02 520.88 Z" />
<path fill="#669900" opacity="1.00" d=" M 271.97 609.04 C 289.34 625.78 307.14 642.27 327.23 655.77 C 336.32 665.97 344.58 676.97 354.89 686.03 C 357.58 713.15 381.47 734.10 407.65 737.94 C 408.36 735.61 409.10 733.28 409.66 730.92 C 475.45 774.21 553.40 795.31 631.14 803.03 C 569.50 783.86 510.29 756.55 455.85 721.80 C 474.50 717.90 493.81 709.65 513.09 714.79 C 536.98 723.23 553.12 746.92 578.50 751.86 C 595.91 755.99 605.91 735.77 623.00 738.01 C 655.29 739.40 685.97 753.14 718.30 753.75 C 734.93 754.94 733.93 733.06 747.82 729.58 C 755.55 728.01 763.58 729.44 771.43 728.96 L 772.39 728.96 C 781.72 737.87 790.39 747.44 799.96 756.10 C 818.06 747.36 834.81 735.56 852.88 727.12 C 866.45 735.39 878.64 746.12 891.98 754.94 C 911.98 744.31 931.76 733.18 951.95 722.94 C 806.33 846.17 582.78 859.37 419.41 763.59 C 357.46 726.98 303.47 674.23 271.97 609.04 Z" />
<path fill="#669900" opacity="1.00" d=" M 891.77 710.21 C 947.11 685.77 998.96 652.77 1041.92 609.93 C 1036.50 622.36 1029.78 634.85 1020.93 645.00 C 981.14 666.67 941.04 687.83 901.03 709.11 C 898.23 710.16 894.25 713.73 891.77 710.21 Z" />
<path fill="#ffffff" opacity="1.00" d=" M 409.66 730.92 C 409.01 718.83 413.08 707.00 416.85 695.67 C 429.85 704.37 442.62 713.43 455.85 721.80 C 510.29 756.55 569.50 783.86 631.14 803.03 C 553.40 795.31 475.45 774.21 409.66 730.92 Z" />
</svg>
