<?xml version="1.0" encoding="UTF-8" ?>
<!DOCTYPE svg PUBLIC "-//W3C//DTD SVG 1.1//EN" "http://www.w3.org/Graphics/SVG/1.1/DTD/svg11.dtd">
<svg width="762pt" height="603pt" viewBox="0 0 762 603" version="1.1" xmlns="http://www.w3.org/2000/svg">
<path fill="#000000" opacity="1.00" d=" M 412.82 45.84 C 426.46 15.57 464.44 1.61 495.16 11.89 C 533.78 28.17 572.36 44.53 610.83 61.17 C 635.11 69.39 653.57 92.77 655.06 118.42 C 658.64 149.53 636.38 174.97 629.11 203.57 C 643.41 210.02 658.20 215.44 672.14 222.71 C 665.60 234.32 662.23 247.43 655.95 259.18 C 653.23 258.16 650.53 257.12 647.81 256.13 C 660.23 288.86 663.62 324.00 662.22 358.77 C 695.04 367.42 727.18 378.61 758.26 392.24 C 715.65 412.15 671.44 428.67 627.03 444.00 C 598.96 476.20 560.12 497.16 519.70 509.70 C 453.74 528.90 383.16 530.93 315.62 519.39 C 256.06 508.18 193.33 482.70 159.00 429.99 C 144.14 407.39 135.20 380.93 133.95 353.90 C 116.23 368.89 99.46 385.02 81.10 399.22 C 69.31 385.80 57.37 372.51 45.88 358.84 C 66.72 344.23 88.66 331.17 109.11 316.06 C 76.46 321.02 43.98 327.26 11.17 331.12 C 7.80 312.91 8.84 294.30 5.97 276.03 C 38.49 275.81 70.90 278.73 103.31 280.76 C 74.33 265.91 44.45 252.64 14.98 238.70 C 19.92 222.03 27.03 206.08 33.44 189.93 C 71.95 215.42 109.28 243.35 147.06 270.18 C 154.48 254.96 162.02 239.82 171.98 226.03 C 148.35 204.09 148.74 164.20 174.05 143.86 C 158.54 109.33 164.17 65.38 191.28 38.23 C 192.82 36.53 196.22 34.77 196.78 38.22 C 208.23 70.28 233.02 94.96 256.88 118.20 C 252.50 89.24 260.77 53.01 285.70 36.25 C 295.80 63.32 314.24 86.37 334.95 106.17 C 338.76 98.58 341.39 90.47 345.18 82.87 C 360.01 88.78 374.28 96.39 389.59 100.93 C 396.58 82.26 404.87 64.10 412.82 45.84 M 433.42 53.24 L 432.75 53.38 C 429.35 61.59 425.56 69.64 422.41 77.96 C 418.52 87.47 413.72 96.70 411.00 106.63 C 477.51 134.18 543.50 163.03 609.88 190.87 C 613.74 182.01 617.80 173.22 621.16 164.14 C 625.28 156.33 627.69 147.72 632.01 140.00 L 631.76 139.25 C 640.26 117.30 626.86 89.94 604.87 82.15 C 568.49 65.88 531.42 51.20 495.00 35.04 C 473.67 23.43 445.03 31.90 433.42 53.24 M 189.78 122.24 C 207.07 172.65 248.45 209.75 289.08 241.96 C 245.83 230.18 206.94 202.82 181.70 165.72 C 165.68 179.80 174.18 203.80 188.04 215.97 C 224.30 251.06 272.19 269.92 318.06 288.98 C 274.85 287.15 230.48 275.59 194.97 250.07 C 190.73 282.72 212.56 314.32 242.92 325.07 C 270.77 337.02 301.52 340.17 331.58 340.16 C 290.10 346.37 240.98 346.71 204.56 321.46 C 185.51 307.35 177.10 283.74 174.35 261.04 C 155.90 298.17 146.95 341.56 160.04 381.97 C 174.02 434.92 222.59 470.24 272.60 486.39 C 337.33 508.23 407.62 509.39 474.58 498.60 C 513.54 492.09 552.09 478.69 584.11 455.06 C 571.80 456.27 559.15 456.89 547.18 453.27 C 528.08 449.72 510.85 435.40 507.97 415.69 C 506.95 388.53 522.83 358.93 550.57 351.61 C 580.06 343.13 611.42 348.15 640.94 354.03 C 636.88 343.04 649.76 314.07 634.06 312.91 C 634.00 321.94 633.99 330.97 633.90 340.01 C 625.83 340.16 617.76 339.84 609.73 339.18 C 609.96 330.71 611.02 321.71 609.39 313.66 C 600.96 311.46 590.94 313.69 582.02 313.04 C 576.67 313.01 571.34 312.99 566.01 312.98 C 565.95 304.99 565.95 297.00 566.01 289.02 C 589.07 288.81 612.13 289.34 635.19 288.75 C 631.57 273.65 627.67 257.82 619.51 244.46 C 546.76 212.19 472.85 182.36 400.08 150.14 L 399.31 150.40 C 391.63 146.79 383.57 144.04 376.09 140.00 L 375.27 140.19 C 371.03 138.23 366.93 135.41 362.20 134.98 C 354.72 127.65 344.16 133.92 335.59 135.60 C 322.11 140.51 308.08 144.72 295.66 152.02 C 302.03 158.44 308.84 164.42 315.83 170.15 C 318.98 173.92 322.77 177.08 326.65 180.07 C 330.99 184.57 335.43 188.95 339.84 193.38 L 340.70 193.31 L 339.85 193.41 C 375.49 228.99 405.64 275.86 403.45 328.05 C 401.35 309.75 394.43 292.22 386.02 275.96 C 348.14 210.74 280.82 172.15 226.38 122.62 C 212.12 108.80 197.76 93.76 190.87 74.75 C 183.35 89.38 186.02 106.91 189.78 122.24 M 283.37 132.99 C 294.04 130.08 303.29 123.47 314.13 120.93 C 301.24 107.00 287.20 93.09 280.87 74.75 C 271.91 92.98 276.92 114.77 283.37 132.99 M 559.05 365.96 C 540.11 369.90 525.70 387.58 524.73 406.73 C 519.67 429.14 547.20 439.30 565.03 440.03 C 610.01 436.88 651.76 417.96 693.50 402.35 C 681.14 403.99 668.57 403.81 656.34 406.34 C 627.24 409.88 593.82 406.10 568.08 422.12 C 565.29 422.23 562.41 422.13 559.68 421.73 C 560.26 408.72 575.94 404.93 586.01 402.03 C 628.02 392.60 671.35 393.60 714.12 391.44 C 664.26 375.68 612.05 356.22 559.05 365.96 Z" />
<path fill="#ed7c31" opacity="1.00" d=" M 433.42 53.24 C 445.03 31.90 473.67 23.43 495.00 35.04 C 531.42 51.20 568.49 65.88 604.87 82.15 C 626.86 89.94 640.26 117.30 631.76 139.25 C 629.44 131.67 625.75 124.60 621.25 118.08 C 625.69 112.83 623.43 105.86 618.20 101.83 C 605.38 92.03 588.22 83.82 571.83 89.01 C 542.21 76.32 512.57 63.68 482.90 51.14 C 466.83 43.87 449.19 47.33 433.42 53.24 Z" />
<path fill="#d6562b" opacity="1.00" d=" M 433.42 53.24 C 449.19 47.33 466.83 43.87 482.90 51.14 C 512.57 63.68 542.21 76.32 571.83 89.01 C 570.82 93.03 569.62 97.66 573.13 100.82 C 585.07 113.63 603.73 121.45 621.25 118.08 C 625.75 124.60 629.44 131.67 631.76 139.25 L 632.01 140.00 C 627.69 147.72 625.28 156.33 621.16 164.14 C 555.34 134.56 487.39 108.91 422.41 77.96 C 425.56 69.64 429.35 61.59 432.75 53.38 L 433.42 53.24 Z" />
<path fill="#c7b29e" opacity="1.00" d=" M 189.78 122.24 C 186.02 106.91 183.35 89.38 190.87 74.75 C 197.76 93.76 212.12 108.80 226.38 122.62 C 280.82 172.15 348.14 210.74 386.02 275.96 C 394.43 292.22 401.35 309.75 403.45 328.05 C 405.64 275.86 375.49 228.99 339.85 193.41 L 340.70 193.31 C 351.16 192.19 370.64 190.58 369.83 176.03 C 356.54 168.74 338.45 170.31 326.65 180.07 C 322.77 177.08 318.98 173.92 315.83 170.15 C 342.49 159.20 371.29 155.70 399.31 150.40 L 400.08 150.14 C 472.85 182.36 546.76 212.19 619.51 244.46 C 627.67 257.82 631.57 273.65 635.19 288.75 C 612.13 289.34 589.07 288.81 566.01 289.02 C 565.95 297.00 565.95 304.99 566.01 312.98 C 571.34 312.99 576.67 313.01 582.02 313.04 C 581.97 321.67 581.99 330.32 582.08 338.96 C 591.29 339.00 600.51 338.86 609.73 339.18 C 617.76 339.84 625.83 340.16 633.90 340.01 C 633.99 330.97 634.00 321.94 634.06 312.91 C 649.76 314.07 636.88 343.04 640.94 354.03 C 611.42 348.15 580.06 343.13 550.57 351.61 C 522.83 358.93 506.95 388.53 507.97 415.69 C 510.85 435.40 528.08 449.72 547.18 453.27 C 528.72 465.42 505.66 469.18 484.33 473.51 C 447.60 480.84 421.31 443.97 385.92 442.94 C 371.93 442.16 361.32 454.01 347.52 454.48 C 326.02 455.80 310.69 435.50 289.51 435.33 C 281.79 437.28 274.71 442.92 266.20 440.47 C 254.76 434.29 248.15 422.25 237.61 414.95 C 225.73 407.70 211.39 421.70 199.93 413.14 C 185.26 404.62 172.17 393.76 160.04 381.97 C 146.95 341.56 155.90 298.17 174.35 261.04 C 177.10 283.74 185.51 307.35 204.56 321.46 C 240.98 346.71 290.10 346.37 331.58 340.16 C 301.52 340.17 270.77 337.02 242.92 325.07 C 212.56 314.32 190.73 282.72 194.97 250.07 C 230.48 275.59 274.85 287.15 318.06 288.98 C 272.19 269.92 224.30 251.06 188.04 215.97 C 174.18 203.80 165.68 179.80 181.70 165.72 C 206.94 202.82 245.83 230.18 289.08 241.96 C 248.45 209.75 207.07 172.65 189.78 122.24 M 363.90 192.49 C 359.66 193.18 353.61 195.50 356.31 201.30 C 364.67 207.49 377.35 207.57 385.64 201.27 C 388.57 189.49 370.63 192.13 363.90 192.49 M 455.01 292.01 C 454.95 300.00 454.96 307.99 455.02 315.99 C 456.76 315.99 460.26 316.00 462.01 316.01 C 461.96 324.66 461.96 333.32 462.01 341.98 C 474.01 342.04 486.00 342.03 498.01 341.98 L 498.00 342.98 C 506.00 343.05 513.98 343.03 521.99 342.98 C 521.99 334.00 522.00 325.02 522.01 316.04 C 525.03 316.04 527.91 315.94 530.99 315.96 C 531.04 307.98 531.03 300.00 530.99 292.02 C 505.66 291.97 480.34 291.99 455.01 292.01 Z" />
<path fill="#c7b29e" opacity="1.00" d=" M 283.37 132.99 C 276.92 114.77 271.91 92.98 280.87 74.75 C 287.20 93.09 301.24 107.00 314.13 120.93 C 303.29 123.47 294.04 130.08 283.37 132.99 Z" />
<path fill="#b55232" opacity="1.00" d=" M 411.00 106.63 C 413.72 96.70 418.52 87.47 422.41 77.96 C 487.39 108.91 555.34 134.56 621.16 164.14 C 617.80 173.22 613.74 182.01 609.88 190.87 C 543.50 163.03 477.51 134.18 411.00 106.63 Z" />
<path fill="#ffffff" opacity="1.00" d=" M 571.83 89.01 C 588.22 83.82 605.38 92.03 618.20 101.83 C 623.43 105.86 625.69 112.83 621.25 118.08 C 603.73 121.45 585.07 113.63 573.13 100.82 C 569.62 97.66 570.82 93.03 571.83 89.01 Z" />
<path fill="#e5d3bd" opacity="1.00" d=" M 335.59 135.60 C 344.16 133.92 354.72 127.65 362.20 134.98 C 341.11 140.17 318.89 144.18 299.77 154.88 C 324.55 148.03 350.06 144.83 375.27 140.19 L 376.09 140.00 C 383.57 144.04 391.63 146.79 399.31 150.40 C 371.29 155.70 342.49 159.20 315.83 170.15 C 308.84 164.42 302.03 158.44 295.66 152.02 C 308.08 144.72 322.11 140.51 335.59 135.60 Z" />
<path fill="#ffffff" opacity="1.00" d=" M 299.77 154.88 C 318.89 144.18 341.11 140.17 362.20 134.98 C 366.93 135.41 371.03 138.23 375.27 140.19 C 350.06 144.83 324.55 148.03 299.77 154.88 Z" />
<path fill="#937963" opacity="1.00" d=" M 326.65 180.07 C 338.45 170.31 356.54 168.74 369.83 176.03 C 370.64 190.58 351.16 192.19 340.70 193.31 L 339.84 193.38 C 335.43 188.95 330.99 184.57 326.65 180.07 Z" />
<path fill="#937963" opacity="1.00" d=" M 363.90 192.49 C 370.63 192.13 388.57 189.49 385.64 201.27 C 377.35 207.57 364.67 207.49 356.31 201.30 C 353.61 195.50 359.66 193.18 363.90 192.49 Z" />
<path fill="#000000" opacity="1.00" d=" M 455.01 292.01 C 480.34 291.99 505.66 291.97 530.99 292.02 C 531.03 300.00 531.04 307.98 530.99 315.96 C 527.91 315.94 525.03 316.04 522.01 316.04 C 522.00 325.02 521.99 334.00 521.99 342.98 C 513.98 343.03 506.00 343.05 498.00 342.98 L 498.01 341.98 C 498.01 333.33 498.00 324.68 497.98 316.03 C 485.98 315.96 474.00 315.98 462.01 316.01 C 460.26 316.00 456.76 315.99 455.02 315.99 C 454.96 307.99 454.95 300.00 455.01 292.01 Z" />
<path fill="#ffffff" opacity="1.00" d=" M 582.02 313.04 C 590.94 313.69 600.96 311.46 609.39 313.66 C 611.02 321.71 609.96 330.71 609.73 339.18 C 600.51 338.86 591.29 339.00 582.08 338.96 C 581.99 330.32 581.97 321.67 582.02 313.04 Z" />
<path fill="#ffffff" opacity="1.00" d=" M 462.01 316.01 C 474.00 315.98 485.98 315.96 497.98 316.03 C 498.00 324.68 498.01 333.33 498.01 341.98 C 486.00 342.03 474.01 342.04 462.01 341.98 C 461.96 333.32 461.96 324.66 462.01 316.01 Z" />
<path fill="#faaf40" opacity="1.00" d=" M 559.05 365.96 C 612.05 356.22 664.26 375.68 714.12 391.44 C 671.35 393.60 628.02 392.60 586.01 402.03 C 575.94 404.93 560.26 408.72 559.68 421.73 C 546.88 419.83 534.72 415.07 524.73 406.73 C 525.70 387.58 540.11 369.90 559.05 365.96 M 559.66 375.83 C 554.58 380.14 563.29 383.49 566.85 384.39 C 576.01 384.38 595.68 389.10 598.14 376.35 C 586.62 370.02 571.17 369.41 559.66 375.83 Z" />
<path fill="#ffffff" opacity="1.00" d=" M 559.66 375.83 C 571.17 369.41 586.62 370.02 598.14 376.35 C 595.68 389.10 576.01 384.38 566.85 384.39 C 563.29 383.49 554.58 380.14 559.66 375.83 Z" />
<path fill="#937963" opacity="1.00" d=" M 160.04 381.97 C 172.17 393.76 185.26 404.62 199.93 413.14 C 211.39 421.70 225.73 407.70 237.61 414.95 C 248.15 422.25 254.76 434.29 266.20 440.47 C 274.71 442.92 281.79 437.28 289.51 435.33 C 310.69 435.50 326.02 455.80 347.52 454.48 C 361.32 454.01 371.93 442.16 385.92 442.94 C 421.31 443.97 447.60 480.84 484.33 473.51 C 505.66 469.18 528.72 465.42 547.18 453.27 C 559.15 456.89 571.80 456.27 584.11 455.06 C 552.09 478.69 513.54 492.09 474.58 498.60 C 407.62 509.39 337.33 508.23 272.60 486.39 C 222.59 470.24 174.02 434.92 160.04 381.97 Z" />
<path fill="#f6921e" opacity="1.00" d=" M 656.34 406.34 C 668.57 403.81 681.14 403.99 693.50 402.35 C 651.76 417.96 610.01 436.88 565.03 440.03 C 547.20 439.30 519.67 429.14 524.73 406.73 C 534.72 415.07 546.88 419.83 559.68 421.73 C 562.41 422.13 565.29 422.23 568.08 422.12 C 598.09 421.25 627.31 413.28 656.34 406.34 Z" />
<path fill="#faaf40" opacity="1.00" d=" M 568.08 422.12 C 593.82 406.10 627.24 409.88 656.34 406.34 C 627.31 413.28 598.09 421.25 568.08 422.12 Z" />
</svg>
